<svg xmlns="http://www.w3.org/2000/svg" xmlns:xlink="http://www.w3.org/1999/xlink" version="1.1" id="Calque_1" x="0px" y="0px" viewBox="0 0 16 16" style="enable-background:new 0 0 16 16;" xml:space="preserve">
<style type="text/css">
	.st0{fill:none;}
</style>
<title>sprite</title>
<desc>Created with Sketch.</desc>
<g id="sprite">
	<g id="ico-quote" transform="translate(0, 0)">
		<path class="st0" d="M15.9,8v2.9c0,2.5-1.2,4.1-3,4.1v-1c1.2,0,2-1.4,2-3.1V8H9V1h7v7H15.9z M7,8v2.9C7,13.4,5.8,15,4,15v-1    c1.2,0,2-1.4,2-3.1V8H0V1h7V8L7,8z M1,7.1h5v-5H1V7.1z M10,7.1h5v-5h-5V7.1z"/>
	</g>
	<g id="ico-arrow-down" transform="translate(0, 0)">
		<path class="st0" d="M5.3,7.1l2.6,2.6l5.3-5.3c0.4-0.4,1-0.4,1.4,0l0.1,0.1c0.4,0.4,0.4,1,0,1.4l-6,6c-0.3,0.2-0.5,0.3-0.8,0.2    c0.3,0,0.5-0.1,0.7-0.3l0.1-0.1c0.4-0.4,0.4-1,0-1.4L7.9,9.6c0,2.5,0,2.5,0,2.5c-0.3,0-0.5-0.1-0.7-0.3l-6-6c-0.4-0.4-0.4-1,0-1.4    l0.1-0.1c0.4-0.4,1-0.4,1.4,0L5.3,7.1l2.6,2.6l5.3-5.3c0.4-0.4,1-0.4,1.4,0l0.1,0.1c0.4,0.4,0.4,1,0,1.4l-6,6    c-0.3,0.2-0.5,0.3-0.8,0.2l-0.8-1.8c-0.4,0.4-0.4,1,0,1.4l0.1,0.1c0.2,0.3,0.4,0.3,0.7,0.3c-0.3,0-0.5-0.1-0.7-0.3l-6-6    c-0.4-0.4-0.4-1,0-1.4l0.1-0.1c0.4-0.4,1-0.4,1.4,0L5.3,7.1z"/>
	</g>
	<g id="ico-arrow-left" transform="translate(0, 0)">
		<path class="st0" d="M9,5.4L6.4,8l5.3,5.3c0.4,0.4,0.4,1,0,1.4l-0.1,0.1c-0.4,0.4-1,0.4-1.4,0l-6-6C3.9,8.4,3.8,8.2,3.9,8    c0,0.3,0,0.5,0.2,0.7l0.1,0.1c0.4,0.4,1,0.4,1.4,0L6.4,8H3.9c0-0.3,0.1-0.5,0.3-0.7l6-6c0.4-0.4,1-0.4,1.4,0l0.1,0.1    c0.4,0.4,0.4,1,0,1.4L9,5.4L6.4,8l5.3,5.3c0.4,0.4,0.4,1,0,1.4l-0.1,0.1c-0.4,0.4-1,0.4-1.4,0l-6-6C3.9,8.4,3.8,8.2,3.9,8l1.8-0.8    c-0.4-0.4-1-0.4-1.4,0L4.1,7.3C3.9,7.5,3.9,7.7,3.9,8c0-0.3,0.1-0.5,0.3-0.7l6-6c0.4-0.4,1-0.4,1.4,0l0.1,0.1c0.4,0.4,0.4,1,0,1.4    L9,5.4z"/>
	</g>
	<g id="ico-arrow-right" transform="rotate(0, 0)">
		<path class="st0" d="M6.9,10.6L9.5,8L4.3,2.8c-0.4-0.4-0.4-1,0-1.4l0.1-0.1c0.4-0.4,1-0.4,1.4,0l6,6C12,7.6,12.1,7.8,12,8    c0-0.3-0.1-0.5-0.3-0.7l-0.1-0.1c-0.4-0.4-1-0.4-1.4,0L9.5,8H12c0,0.3-0.1,0.5-0.3,0.7l-6,6c-0.4,0.4-1,0.4-1.4,0l-0.1-0.1    c-0.4-0.4-0.4-1,0-1.4L6.9,10.6L9.5,8L4.3,2.8c-0.4-0.4-0.4-1,0-1.4l0.1-0.1c0.4-0.4,1-0.4,1.4,0l6,6C12,7.6,12.1,7.8,12,8    l-1.8,0.8c0.4,0.4,1,0.4,1.4,0l0.1-0.1C12,8.5,12,8.3,12,8c0,0.3-0.1,0.5-0.3,0.7l-6,6c-0.4,0.4-1,0.4-1.4,0l-0.1-0.1    c-0.4-0.4-0.4-1,0-1.4C4.3,13.3,6.9,10.6,6.9,10.6z"/>
	</g>
	<g id="ico-arrow-up" transform="rotate(180 8 8)">
		<path class="st0" d="M5.3,7l2.6,2.5l5.3-5.3c0.4-0.4,1-0.4,1.4,0l0.1,0.1c0.4,0.4,0.4,1,0,1.4l-6,6C8.4,12,8.2,12.1,7.9,12    c0.3,0,0.5-0.1,0.7-0.3l0.1-0.1c0.4-0.4,0.4-1,0-1.4L7.9,9.5c0,2.5,0,2.5,0,2.5c-0.3,0-0.5-0.1-0.7-0.3l-6-6    C0.9,5.4,0.9,4.8,1.3,4.4l0.1-0.1c0.4-0.4,1-0.4,1.4,0L5.3,7l2.6,2.5l5.3-5.3c0.4-0.4,1-0.4,1.4,0l0.1,0.1c0.4,0.4,0.4,1,0,1.4    l-6,6C8.4,12,8.2,12.1,7.9,12l-0.8-1.8c-0.4,0.4-0.4,1,0,1.4l0.1,0.1C7.4,12,7.6,12,7.9,12c-0.3,0-0.5-0.1-0.7-0.3l-6-6    C0.9,5.4,0.9,4.8,1.3,4.4l0.1-0.1c0.4-0.4,1-0.4,1.4,0L5.3,7z"/>
	</g>
	<g id="ico-back" transform="translate(0, 0)">
		<path class="st0" d="M2,4.5l9,0.1c2.8,0.2,5,2.3,5,5c0,2.6-2.2,4.8-5,5L0.6,14.4c-0.4,0-0.6-0.2-0.6-0.5s0.2-0.5,0.6-0.5H11    c2.2-0.2,3.9-1.9,3.9-4s-1.8-3.8-4-4H3H2l2.2,2.3c0.2,0.2,0.2,0.5,0,0.7s-0.6,0.2-0.8,0l-3.2-3C0.1,5.3,0,5.2,0,5.1    s0.1-0.3,0.2-0.4l3.2-3.1c0.2-0.2,0.6-0.2,0.8,0c0.2,0.2,0.2,0.5,0,0.7L2,4.5z"/>
	</g>
	<g id="ico-calendar" transform="translate(0, 0)">
		<path class="st0" d="M5,1.1h6v-1h3v3.7h-3V2.1H5v1.7H2V0.1h3V1.1z M15.9,5.1L15.9,5.1v1l0,0V16H0V1.1h2v1H1v3h13.9v-3h-1v-1h2V5.1    z M1,6.1V15h13.9V6.1H1z M3,2.8h1V1.1H3V2.8z M12,2.8h1V1.1h-1V2.8z"/>
	</g>
	<g id="ico-cards-select" transform="translate(0, 0)">
		<path class="st0" d="M0,2.1h7v2H0V2.1z M9,2.1h7v2H9V2.1z M0,7.1h7v2H0V7.1z M9,7.1h7v2H9V7.1z M0,12h7v2H0V12z M9,12h7v2H9V12z"/>
	</g>
	<g id="ico-check" transform="translate(0, 0)">
		<path class="st0" d="M5.7,15.8L5.7,15.8L5.7,15.8c0.1,0.1,0.1,0.1,0.2,0.1l0,0c0.1,0,0.1,0,0.2,0.1c0.1,0,0.1,0,0.2,0s0.2,0,0.2,0    h0.1c0.1,0,0.2-0.1,0.3-0.1l0,0C7,15.8,7,15.8,7.1,15.8c0,0,0,0,0-0.1l0,0l8.6-13.9c0.2-0.4,0.2-0.6,0.2-0.9    c-0.1-0.3-0.2-0.5-0.4-0.6c-0.3-0.2-0.5-0.2-0.8-0.2c-0.3,0.1-0.5,0.2-0.6,0.4l-8,12.8L1.7,9C1.5,8.8,1.3,8.8,1,8.8    S0.5,8.9,0.3,9.1C0.1,9.3,0,9.5,0,9.8s0.1,0.5,0.3,0.7L5.7,15.8C5.7,15.7,5.7,15.8,5.7,15.8z"/>
	</g>
	<g id="ico-circle-check" transform="translate(0, 0)">
		<path class="st0" d="M15,8c0-3.9-3.1-7-7-7S1.1,4.2,1.1,8s3.1,7,7,7S15,11.9,15,8z M16,8c0,4.4-3.6,8-8,8s-8-3.6-8-8s3.6-8,8-8    S16,3.7,16,8z M11.7,4.8l-5.4,6.6L4.4,9.6c-0.2-0.2-0.5-0.2-0.7,0s-0.2,0.5,0,0.7l2.3,2c0.2,0.2,0.5,0.2,0.7-0.1l5.7-7    c0.2-0.2,0.1-0.5-0.1-0.7C12.2,4.5,11.9,4.6,11.7,4.8z"/>
	</g>
	<g id="ico-download" transform="translate(0, 0)">
		<path class="st0" d="M7.5,10.8V0.2h1v10.6l4-4l0.7,0.7l-4.9,4.9c-0.2,0.2-0.5,0.2-0.7,0L2.8,7.6l0.7-0.7L7.5,10.8z M14.9,12.1    c0-0.3,0.2-0.5,0.5-0.5s0.5,0.2,0.5,0.5v1.3c0,1.3-1.1,2.4-2.4,2.4H2.4c-1.3,0-2.4-1.1-2.4-2.4v-1.3c0-0.3,0.2-0.5,0.5-0.5    S1,11.8,1,12.1v1.3c0,0.8,0.6,1.4,1.4,1.4h11c0.8,0,1.5-0.6,1.5-1.4V12.1z"/>
	</g>
	<g id="ico-view" transform="translate(0, 0)">
		<path class="st0" d="M14.6,8L14.6,8C14,7.4,13.5,6.9,13,6.4c-1.6-1.5-3.3-2.3-5-2.3S4.6,4.9,3,6.4C2.4,6.9,1.9,7.4,1.4,8H1.3    l0.1,0.1c0.5,0.6,1,1.1,1.6,1.6C4.6,11.2,6.3,12,8,12s3.4-0.8,5-2.3C13.5,9.2,14,8.6,14.6,8C14.6,8.1,14.6,8,14.6,8z M15.9,8    c0,0-3.6,5-8,5S0,8,0,8s3.6-5,8-5S15.9,8,15.9,8z M10,8c0,1.1-0.9,2-2,2S6,9.1,6,8s0.9-2,2-2S10,7,10,8z M11,8c0-1.7-1.3-3-3-3    S5,6.4,5,8s1.3,3,3,3S11,9.7,11,8z"/>
	</g>
	<g id="ico-facebook" transform="translate(0, 0)">
		<path class="st0" d="M11.8,5.3H9.2V3.6c0-0.6,0.4-0.8,0.7-0.8s1.8,0,1.8,0V0.1H9.2c-2.8,0-3.4,2-3.4,3.4v1.8H4.2V8h1.6    c0,3.6,0,8,0,8h3.4c0,0,0-4.4,0-8h2.3L11.8,5.3z"/>
	</g>
	<g id="ico-google" transform="translate(0, 0)">
		<path class="st0" d="M5.1,7.1v2c0,0,2,0,2.7,0c-0.4,1.3-1.1,2-2.7,2c-1.7,0-3-1.4-3-3s1.3-3,3-3c0.9,0,1.5,0.3,2,0.7    c0.4-0.4,0.4-0.5,1.4-1.5C7.6,3.5,6.4,3,5.1,3C2.3,3,0,5.3,0,8s2.3,5.1,5.1,5.1c4.2,0,5.2-3.7,4.9-6.1C9,7.1,5.1,7.1,5.1,7.1z     M14.1,7.2V5.4H13v1.8h-1.8v1.3H13v1.8h1.3v-2H16V7.2H14.1z"/>
	</g>
	<g id="ico-linkedin" transform="translate(0, 0)">
		<path class="st0" d="M3.3,2.2c0,0.9-0.7,1.6-1.7,1.6S0,3.1,0,2.2s0.7-1.6,1.7-1.6S3.3,1.3,3.3,2.2z M3.3,5.2H0v10.3h3.3V5.2z     M8.7,5.2H5.3v10.3h3.3V10c0-3,4-3.3,4,0v5.5H16V8.9c0-5.1-5.9-5-7.3-2.4V5.2z"/>
	</g>
	<g id="ico-list-select" transform="translate(0, 0)">
		<path class="st0" d="M0,2.1h15.9v2H0V2.1z M0,7.1h15.9v2H0V7.1z M0,12h15.9v2H0V12z"/>
	</g>
	<g id="ico-mail" transform="translate(0, 0)">
		<path class="st0" d="M14.2,2.4H1.8C0.9,2.4,0.1,3.1,0.1,4l0,0v8c0,0.9,0.8,1.7,1.7,1.7l0,0h12.4c0.9,0,1.7-0.8,1.7-1.7l0,0V4    C16,3.1,15.2,2.4,14.2,2.4C14.3,2.4,14.3,2.4,14.2,2.4z M1.8,3.5h12.4c0.1,0,0.2,0,0.3,0.1L8.4,7.7C8.2,7.8,8,7.8,7.8,7.7L1.6,3.6    C1.6,3.5,1.7,3.5,1.8,3.5z M14.8,11.9c0,0.3-0.3,0.6-0.6,0.6H1.8c-0.3,0-0.6-0.2-0.6-0.5l0,0V4.7l5.9,4C7.7,9,8.4,9,9,8.6l5.9-3.9    C14.8,4.8,14.8,11.9,14.8,11.9z"/>
	</g>
	<g id="ico-minus" transform="translate(0, 0)">
		<rect y="7.5" class="st0" width="15.9" height="1"/>
	</g>
	<g id="ico-play" transform="translate(0, 0)">
		<path class="st0" d="M15,8c0-3.9-3.1-7-7-7S1.1,4.2,1.1,8s3.1,7,7,7S15,11.9,15,8z M16,8c0,4.4-3.6,8-8,8s-8-3.6-8-8s3.6-8,8-8    S16,3.7,16,8z M10.6,8l-4.4,2.2V5.9L10.6,8z M5.3,11c0,0.4,0.4,0.6,0.7,0.4l6-3c0.4-0.2,0.4-0.7,0-0.9l-6-3    c-0.3,0-0.7,0.2-0.7,0.6V11z"/>
	</g>
	<g id="ico-plus" transform="translate(0, 0)">
		<path id="plus-a" class="st0" d="M7.5,7.6V0.1h1v7.5H16v1H8.5V16h-1V8.5H0v-1L7.5,7.6L7.5,7.6z"/>
	</g>
	<g id="ico-search" transform="translate(0, 0)">
		<path class="st0" d="M9.5,0.1C7.7,0.1,6.2,0.7,4.9,2S3.1,4.7,3.1,6.5c0,1.5,0.5,2.8,1.4,4l-4.3,4.2C0.1,14.8,0,15,0,15.2    s0.1,0.4,0.2,0.5s0.3,0.2,0.5,0.2s0.4-0.1,0.5-0.2l4.3-4.2c1.2,0.9,2.6,1.4,4.1,1.4c1.8,0,3.3-0.6,4.6-1.9S16,8.2,16,6.4    S15.3,3.2,14,2S11.3,0.1,9.5,0.1z M9.5,11.9c-1.5,0-2.8-0.5-3.9-1.6S4,8,4,6.5s0.5-2.8,1.6-3.9c1.1-1,2.4-1.5,3.9-1.5    s2.8,0.5,3.9,1.6C14.5,3.7,15,5,15,6.5s-0.5,2.8-1.6,3.9S11,11.9,9.5,11.9z"/>
	</g>
	<g id="ico-twitter" transform="translate(0, 0)">
		<path id="twitter-a" class="st0" d="M13.5,3c-0.6-0.6-1.5-1-2.4-1C9.4,2,7.9,3.4,7.9,5.1c0,0.2,0,0.5,0.1,0.7    C5.3,5.6,2.8,4.4,1.2,2.6C0.9,3,0.8,3.5,0.8,4.1c0,1.1,0.6,2,1.5,2.6c-0.5,0-1-0.2-1.5-0.4l0,0c0,1.5,1.1,2.7,2.6,3    c-0.3,0-0.6,0.1-0.9,0.1c-0.2,0-0.4,0-0.6-0.1c0.4,1.2,1.6,2.1,3.1,2.1c-1.1,0.8-2.5,1.3-4.1,1.3c-0.3,0-0.5,0-0.8,0    c1.5,0.9,3.2,1.4,5,1.4c6,0,9.2-4.7,9.2-8.7c0-0.1,0-0.3,0-0.4c0.6-0.4,1.2-1,1.6-1.6c-0.6,0.2-1.2,0.4-1.9,0.5    c0.7-0.4,1.2-1,1.4-1.7C14.9,2.6,14.2,2.8,13.5,3z"/>
	</g>
	<g id="ico-time" transform="translate(0, 0)">
		<path class="st0" d="M15,8c0-3.9-3.1-7-7-7S1.1,4.2,1.1,8s3.1,7,7,7S15,11.9,15,8z M16,8c0,4.4-3.6,8-8,8s-8-3.6-8-8s3.6-8,8-8    S16,3.7,16,8z M12.4,11L8.6,7.5V4.1c0-0.3-0.2-0.5-0.5-0.5S7.6,3.8,7.6,4.1v3.7c0,0.1,0.1,0.3,0.2,0.4l4,3.7    c0.2,0.2,0.5,0.2,0.7,0C12.7,11.5,12.6,11.2,12.4,11z"/>
	</g>
	<g id="ico-rss" transform="translate(0, 0)">
		<path class="st0" d="M4.8,13c0,1-0.8,1.9-1.9,1.9c-1,0-1.9-0.8-1.9-1.9s0.8-1.9,1.9-1.9C3.9,11.1,4.8,12,4.8,13z M1,5.8v2.8    c3.5,0,6.4,2.9,6.4,6.4h2.8C10.2,9.8,6.1,5.8,1,5.8z M1,3.8c6.2,0,11.1,5,11.1,11.1h2.8C14.9,7.3,8.7,1,1,1V3.8z"/>
	</g>
	<g id="ico-youtube" transform="translate(0, 0)">
		<path class="st0" d="M3.1,0h1l0.7,2.5L5.3,0h1L5.2,3.7v2.5h-1V3.7L3.1,0z M7.5,1.6c-0.7,0-1.2,0.5-1.2,1.2V5    c0,0.8,0.4,1.2,1.2,1.2c0.7,0,1.2-0.5,1.2-1.2V2.8C8.7,2.1,8.2,1.6,7.5,1.6z M7.8,5c0,0.2-0.1,0.4-0.4,0.4C7.2,5.4,7.1,5.2,7.1,5    V2.9c0-0.2,0.1-0.4,0.4-0.4s0.4,0.2,0.4,0.4L7.8,5L7.8,5z M11,1.6v3.5c-0.1,0.1-0.3,0.3-0.5,0.3s-0.2-0.1-0.2-0.3V1.6H9.4v3.8    c0,0.5,0.1,0.8,0.6,0.8c0.3,0,0.6-0.1,1-0.6v0.5h0.8V1.6H11z M12.4,10.8c-0.3,0-0.4,0.2-0.4,0.5v0.4h0.7v-0.4    C12.8,11,12.7,10.8,12.4,10.8z M9.3,10.8c-0.1,0-0.1,0.1-0.2,0.1v2.7c0.1,0.1,0.2,0.1,0.2,0.2c0.1,0.1,0.3,0.1,0.4,0    c0-0.1,0.1-0.2,0.1-0.3v-2.2c0-0.1,0-0.3-0.1-0.3C9.6,10.7,9.4,10.7,9.3,10.8z M12.5,7.4c-1.7-0.1-7.4-0.1-9,0    c-1.9,0.2-2.1,1.3-2.1,4.3s0.2,4.1,2.1,4.2c1.7,0.1,7.4,0.1,9,0c1.9-0.1,2.1-1.3,2.1-4.2C14.5,8.6,14.3,7.6,12.5,7.4z M4.3,14.4    H3.4v-5H2.5V8.6h2.8v0.9h-1V14.4L4.3,14.4z M7.5,14.4H6.7v-0.5c-0.1,0.2-0.3,0.3-0.5,0.4c-0.4,0.2-1,0.2-1-0.6v-3.6H6v3.3    c0,0.2,0,0.3,0.2,0.3s0.4-0.2,0.5-0.3v-3.3h0.8V14.4L7.5,14.4z M10.6,13.5c0,0.5-0.2,1-0.7,1c-0.3,0-0.5-0.1-0.8-0.4v0.3H8.3V8.6    h0.8v1.9c0.2-0.2,0.4-0.4,0.7-0.4c0.6,0,0.8,0.5,0.8,1.1V13.5L10.6,13.5z M13.5,12.4H12v0.8c0,0.3,0,0.6,0.4,0.6    c0.3,0,0.4-0.2,0.4-0.6v-0.3h0.8v0.3c0,0.8-0.4,1.3-1.2,1.3s-1.2-0.6-1.2-1.3v-1.9c0-0.8,0.5-1.3,1.2-1.3c0.8,0,1.1,0.5,1.1,1.3    V12.4L13.5,12.4z"/>
	</g>
	<g id="ico-lang-switch" transform="translate(0, 0)">
		<path class="st0" d="M15,8c0-3.9-3.1-7-7-7S1.1,4.2,1.1,8s3.1,7,7,7S15,11.9,15,8z M16,8c0,4.4-3.6,8-8,8s-8-3.6-8-8s3.6-8,8-8    S16,3.7,16,8z M8.1,14.7L8.1,14.7c0.7-0.6,1.2-1.1,1.7-1.7c1.4-1.6,2.3-3.4,2.3-5s-0.8-3.4-2.3-5c-0.5-0.5-1-1-1.6-1.5L8.1,1.4    L8,1.5C7.4,2,6.9,2.5,6.4,3.1C4.9,4.7,4.1,6.4,4.1,8s0.8,3.4,2.3,5C6.9,13.6,7.5,14.1,8.1,14.7C8,14.7,8.1,14.7,8.1,14.7z M8.1,16    c0,0-5-3.6-5-8s5-8,5-8s5,3.6,5,8S8.1,16,8.1,16z M0.1,7.6H16v1H0.1V7.6z M8.6,0.1V16h-1V0.1H8.6z"/>
	</g>
	<g id="ico-faq" transform="translate(0, 0)">
		<path class="st0" d="M8.6,7.9v0.6C8.6,8.7,8.3,9,8,9S7.4,8.7,7.4,8.4v-1c0-0.3,0.3-0.6,0.6-0.6C9,6.8,9.8,6,9.8,5S9,3.3,8,3.3    S6.2,4.1,6.2,5c0,0.3-0.3,0.6-0.6,0.6S5,5.3,5,5c0-1.6,1.3-2.9,3-2.9s3,1.3,3,2.9C11,6.4,10,7.6,8.6,7.9z M8,12c-0.6,0-1-0.4-1-1    s0.4-1,1-1s1,0.4,1,1S8.6,12,8,12z M2.1,14.3l3-1.5c0.1-0.1,0.2-0.1,0.4,0c0.8,0.3,1.6,0.4,2.5,0.4c3.9,0,7-2.7,7-6.1    C15,3.8,11.9,1,8,1S1,3.9,1,7.2c0,1.6,0.7,3.2,2.1,4.3c0.2,0.2,0.2,0.4,0.1,0.7L2.1,14.3z M0,7.2c0-3.9,3.6-7.1,8-7.1s8,3.2,8,7.1    c0,4-3.6,7.1-8,7.1c-0.9,0-1.8-0.1-2.6-0.4L1.3,16c-0.4,0.2-0.9-0.3-0.7-0.7L2.1,12C0.8,10.7,0,9,0,7.2z"/>
	</g>
	<g id="ico-contact" transform="translate(0, 0)">
		<path class="st0" d="M11,6.9c0,2.4-1.3,3-3,3v-1c1.2,0,2-0.4,2-2H6V3.1V0.9h8.9v6H11z M6.7,11.1c1.4,0.7,2.3,2.2,2.3,4H1    c0-1.7,0.9-3.2,2.3-3.9c-0.5-0.5-0.8-1.1-0.8-1.8C2.5,8,3.6,6.9,5,6.9S7.5,8,7.5,9.3C7.5,10,7.2,10.7,6.7,11.1z M6.4,9.2    c0-0.8-0.6-1.4-1.4-1.4S3.6,8.4,3.6,9.2s0.6,1.4,1.4,1.4C5.8,10.6,6.4,10,6.4,9.2z M7,5.9h7v-4H7V5.9z M8,3.9h1v1H8V3.9z M10,3.9    h1v1h-1V3.9z M12,3.9h1v1h-1V3.9z"/>
	</g>
	<g id="ico-telephone" transform="translate(0, 0)">
		<path class="st0" d="M11,6.9c0,2.4-1.3,3-3,3v-1c1.2,0,2-0.4,2-2H6V3.1V0.9h8.9v6H11z M6.7,11.1c1.4,0.7,2.3,2.2,2.3,4H1    c0-1.7,0.9-3.2,2.3-3.9c-0.5-0.5-0.8-1.1-0.8-1.8C2.5,8,3.6,6.9,5,6.9S7.5,8,7.5,9.3C7.5,10,7.2,10.7,6.7,11.1z M6.4,9.2    c0-0.8-0.6-1.4-1.4-1.4S3.6,8.4,3.6,9.2s0.6,1.4,1.4,1.4C5.8,10.6,6.4,10,6.4,9.2z M7,5.9h7v-4H7V5.9z M8,3.9h1v1H8V3.9z M10,3.9    h1v1h-1V3.9z M12,3.9h1v1h-1V3.9z"/>
	</g>
	<g id="ico-location" transform="translate(0, 0)">
		<path class="st0" d="M8,1.1c-2.9,0-5.3,2.4-5.3,5.3c0,1.1,0.4,2.2,1,3.2l4,5.3C7.8,14.9,7.9,15,8,15c0.1,0,0.2,0,0.2-0.1l4-5.3    c0.7-0.9,1-2,1-3.2C13.2,3.5,10.9,1.1,8,1.1z M11.7,9.1l-3.8,5l-3.8-5C3.6,8.3,3.3,7.4,3.3,6.4c0-2.6,2.1-4.7,4.7-4.7    c1.2,0,2.4,0.5,3.2,1.3c0.9,0.8,1.5,2,1.5,3.4C12.7,7.4,12.3,8.3,11.7,9.1z"/>
		<path class="st0" d="M8,3.7c-1.5,0-2.7,1.2-2.7,2.7S6.5,9,8,9s2.7-1.2,2.7-2.7S9.5,3.7,8,3.7z M8,8.4c-1.2,0-2.2-1-2.2-2.2    S6.8,4,8,4s2.2,1,2.2,2.2S9.2,8.4,8,8.4z"/>
	</g>
	<g id="ico-elearning" transform="translate(0, 0)">
		<path class="st0" d="M8.6,7.3c-0.1,0.1-0.3,0.1-0.4,0L3.1,5.2c-0.5-0.2-0.5-0.8,0-1l5.1-2.1c0.1,0,0.2,0,0.4,0l5.1,2.1    c0.5,0.2,0.5,0.8,0,1L8.6,7.3z M6,15v-2H1H0V0.1h1h13.9h1V13h-1h-5v2h4v1H2v-1H6z M7,15h2v-2H7V15z M1,1.1V12h13.9V1.1H1z M3.8,7    l0.7,2C4.6,9.3,4.4,9.7,4,9.7H2.5C2.2,9.7,1.9,9.3,2,8.9l0.7-2V4.7c0-0.3,0.2-0.5,0.5-0.5s0.5,0.2,0.5,0.5L3.8,7L3.8,7z M12,4.7    L8.4,6.2L4.7,4.7l3.7-1.5L12,4.7z M10.7,5.8c0-0.3,0.2-0.5,0.5-0.5s0.5,0.2,0.5,0.5v2.4c0,0.2-0.1,0.4-0.3,0.5L8.6,9.9    C8.5,10,8.3,10,8.1,9.9L5.2,8.6C5,8.5,4.9,8.3,4.9,8.1V5.8c0-0.3,0.2-0.5,0.5-0.5C5.8,5.2,6,5.5,6,5.8v2.1L8.4,9l2.4-1.1L10.7,5.8    L10.7,5.8z"/>
	</g>
	<g id="ico-on-site-training" transform="translate(0, 0)">
		<path class="st0" d="M4,2.1c0-0.6-0.5-1-1-1c-0.6,0-1,0.4-1,1s0.5,1,1,1C3.6,3.1,4,2.7,4,2.1z M9.2,8.7c1.4,0.6,2.4,2,2.4,3.8H4.3    c0-1.7,1-3.2,2.4-3.8c-0.6-0.4-1-1.1-1-1.9c0-1.3,1-2.3,2.3-2.3s2.3,1,2.3,2.3C10.3,7.7,9.9,8.3,9.2,8.7z M14.3,3.5    c1,0.6,1.6,1.5,1.6,2.6c0,0.3-0.2,0.5-0.5,0.5h-3.8c-0.3,0-0.5-0.2-0.5-0.5s0.2-0.5,0.5-0.5h3.2c-0.3-0.8-1.1-1.5-2.2-1.5    c-0.7,0-1.3,0.3-1.7,0.8c-0.2,0.2-0.5,0.3-0.7,0.1C10,4.9,9.9,4.6,10.1,4.3c0.3-0.4,0.8-0.8,1.3-1C11.2,3,11,2.6,11,2.1    c0-1.1,0.9-2,2-2s2,0.9,2,2C14.9,2.7,14.7,3.2,14.3,3.5z M13.2,3.1C13.7,3,14,2.6,14,2.1c0-0.6-0.5-1-1-1c-0.6,0-1,0.5-1,1    s0.3,0.9,0.7,1l0,0C12.9,3.1,13,3.1,13.2,3.1z M4.6,3.4c0.5,0.2,1,0.6,1.3,1C6.1,4.6,6,4.9,5.8,5C5.6,5.1,5.2,5.2,5,4.9    C4.6,4.4,4,4.1,3.3,4.1c-1,0-1.9,0.7-2.1,1.5h3.2c0.3,0,0.5,0.2,0.5,0.5S4.7,6.6,4.4,6.6H0.5C0.2,6.6,0,6.4,0,6.1    c0-1.1,0.6-2,1.6-2.6C1.2,3.2,1,2.7,1,2.1c0-1.1,0.9-2,2-2s2,0.9,2,2C5,2.6,4.8,3,4.6,3.4z M9.3,6.9c0-0.7-0.6-1.3-1.3-1.3    S6.7,6.2,6.7,6.9C6.7,7.5,7.3,8,8,8S9.3,7.5,9.3,6.9z M7.3,14.6C7.3,14.8,7.2,15,7,15l-2.3,1c-0.2,0-0.5,0-0.7-0.2    s-0.1-0.6,0.2-0.7l0.5-0.2c-2.9-0.3-4.7-1-4.7-2C0,12,1.5,11.4,4,11c0.3,0,0.6,0.1,0.7,0.3c0.1,0.3-0.1,0.5-0.4,0.6    c-1.9,0.3-3.1,0.7-3.1,1c0,0.4,1.7,0.9,4.1,1.2l-0.6-0.5c-0.2-0.2-0.2-0.6,0.1-0.7C5,12.8,5.3,12.8,5.5,13L7,14.3    C7.2,14.4,7.3,14.5,7.3,14.6z M11.2,11.3c0.1-0.2,0.4-0.4,0.7-0.3c2.6,0.4,4.1,1,4.1,1.9c0,1.3-3.2,2.1-7.6,2.2    c-0.3,0-0.6-0.2-0.6-0.4c0-0.3,0.3-0.5,0.6-0.5c3.5-0.1,6.5-0.7,6.5-1.3c0-0.3-1.3-0.8-3.2-1C11.3,11.8,11.1,11.6,11.2,11.3z"/>
	</g>
	<g id="ico-training-center" transform="translate(0, 0)">
		<path class="st0" d="M13.2,11.3c1.4,0.7,2.3,2.2,2.3,3.9h-8c0-1.7,0.9-3.2,2.3-3.9C9.3,10.8,9,10.2,9,9.5C9,8.1,10.1,7,11.5,7    S14,8.1,14,9.5C13.9,10.2,13.6,10.9,13.2,11.3z M1.5,1.1h8.9l-3,2.5l3,2.5H1.5V16h-1V0.1h1V1.1z M8,5.1L6.3,3.6L8,2.1H1.5v3H8z     M12.9,9.4c0-0.8-0.6-1.4-1.4-1.4c-0.8,0-1.4,0.6-1.4,1.4s0.6,1.4,1.4,1.4C12.3,10.8,12.9,10.2,12.9,9.4z"/>
	</g>
	<g id="ico-web-training" transform="translate(0, 0)">
		<path class="st0" d="M4,2.1c0-0.6-0.5-1-1-1c-0.6,0-1,0.4-1,1s0.5,1,1,1C3.6,3.1,4,2.7,4,2.1z M9.6,12.4c1.2,0.6,2.1,2,2.1,3.6    H4.3c0-1.6,0.9-3,2.1-3.6c-0.4-0.4-0.7-1-0.7-1.7c0-1.3,1-2.3,2.3-2.3s2.3,1,2.3,2.3C10.3,11.4,10,12,9.6,12.4z M14.3,3.5    c1,0.6,1.6,1.5,1.6,2.6c0,0.3-0.2,0.5-0.5,0.5h-3.8c-0.3,0-0.5-0.2-0.5-0.5s0.2-0.5,0.5-0.5h3.2c-0.3-0.8-1.1-1.5-2.2-1.5    c-0.7,0-1.3,0.3-1.7,0.8c-0.2,0.2-0.5,0.3-0.7,0.1C10,4.9,9.9,4.6,10.1,4.3c0.3-0.4,0.8-0.8,1.3-1C11.2,3,11,2.6,11,2.1    c0-1.1,0.9-2,2-2s2,0.9,2,2C14.9,2.7,14.7,3.2,14.3,3.5z M13.2,3.1C13.7,3,14,2.6,14,2.1c0-0.6-0.5-1-1-1c-0.6,0-1,0.5-1,1    s0.3,0.9,0.7,1l0,0C12.9,3.1,13,3.1,13.2,3.1z M4.6,3.4c0.5,0.2,1,0.6,1.3,1C6.1,4.6,6,4.9,5.8,5C5.6,5.1,5.2,5.2,5,4.9    C4.6,4.4,4,4.1,3.3,4.1c-1,0-1.9,0.7-2.1,1.5h3.2c0.3,0,0.5,0.2,0.5,0.5S4.7,6.6,4.4,6.6H0.5C0.2,6.6,0,6.4,0,6.1    c0-1.1,0.6-2,1.6-2.6C1.2,3.2,1,2.7,1,2.1c0-1.1,0.9-2,2-2s2,0.9,2,2C5,2.6,4.8,3,4.6,3.4z M9.3,10.7C9.3,10,8.7,9.4,8,9.4    S6.7,10,6.7,10.7S7.3,12,8,12C8.7,11.9,9.3,11.4,9.3,10.7z M3.9,8.8C3.7,9,3.4,9.1,3.2,8.9C3,8.7,2.9,8.4,3.1,8.2    C4.3,6.8,6.1,6,8,6s3.7,0.8,4.8,2.2C13,8.4,13,8.7,12.7,8.9C12.5,9.1,12.2,9,12,8.8C11,7.6,9.6,7,8,7S4.9,7.8,3.9,8.8z"/>
	</g>
	<g id="ico-practical-guide" transform="translate(0, 0)">
		<path class="st0" d="M9.2,13V9.4c0-0.3,0.2-0.5,0.5-0.5H14v-8H2v12.2L9.2,13L9.2,13z M10.1,13.8c-0.1,0.1-0.3,0.1-0.4,0.1H1.5    c-0.3,0-0.5-0.2-0.5-0.4V0.4C1,0.2,1.2,0,1.5,0h12.9c0.3,0,0.5,0.2,0.5,0.4v8.9c0,0.1-0.1,0.2-0.1,0.3L10.1,13.8z M13.3,9.8h-3.1    v2.7L13.3,9.8z M13.9,15v-2.6c0-0.3,0.2-0.5,0.5-0.5s0.5,0.2,0.5,0.5v3.1c0,0.3-0.2,0.5-0.5,0.5H2.5C2.2,16,2,15.8,2,15.5    S2.2,15,2.5,15H13.9z"/>
	</g>
	<g id="ico-product-sheet" transform="translate(0, 0)">
		<path class="st0" d="M9.2,15.1v-3.7c0-0.2,0.2-0.4,0.5-0.4H14V1H2v14.2L9.2,15.1L9.2,15.1z M10.1,15.9C10,16,9.8,16,9.7,16H1.5    C1.2,16,1,15.8,1,15.6V0.5c0-0.2,0.2-0.4,0.5-0.4h12.9c0.3,0,0.5,0.2,0.5,0.4v10.9c0,0.1-0.1,0.2-0.1,0.3L10.1,15.9z M13.3,11.9    h-3.1v2.7L13.3,11.9z"/>
	</g>
	<g id="ico-studycase" transform="translate(0, 0)">
		<path class="st0" d="M13.3,2.7L13.3,2.7c0.4,0,0.6,0.2,0.6,0.5v12.3c0,0.3-0.2,0.5-0.5,0.5H3.8c-1,0-1.8-0.8-1.8-1.8V1.9    c0-1,0.8-1.8,1.8-1.8h9c0.3,0,0.5,0.2,0.5,0.5V2.7z M3,14.2C3,14.6,3.4,15,3.8,15H13V3.7H3.8C3.5,3.7,3.2,3.6,3,3.5V14.2z     M12.4,1.1H3.8C3.4,1.1,3,1.5,3,1.9s0.4,0.8,0.8,0.8h8.5C12.4,2.7,12.4,1.1,12.4,1.1z M9.1,6.9c0-0.6-0.5-1.1-1.1-1.1    S6.9,6.3,6.9,6.9S7.4,8,8,8S9.1,7.6,9.1,6.9z M10.1,6.9C10.1,8,9.2,9,8,9S5.9,8,5.9,6.9S6.8,4.8,8,4.8S10.1,5.8,10.1,6.9z M8,8    c1.8,0,3.4,1.3,3.4,3.8c0,0.3-0.2,0.5-0.5,0.5H5.1c-0.3,0-0.5-0.2-0.5-0.5C4.6,9.3,6.2,8,8,8z M8,9c-1.2,0-2.2,0.8-2.4,2.3h4.8    C10.2,9.7,9.2,9,8,9z"/>
	</g>
	<g id="ico-video" transform="translate(0, 0)">
		<path class="st0" d="M0,16V0.1h15.9V16H0z M1,15h13.9V1.1H1V15z M1,13v-1h13.9v1H1z M1,4.1v-1h13.9v1H1z M9.8,8L6,6.4v3.4L9.8,8z     M5,4.8L12.2,8L5,11.3V4.8z"/>
	</g>
	<g id="ico-webinar" transform="translate(0, 0)">
		<path class="st0" d="M7,5.1h1v0.8c0,0.2-0.2,0.4-0.4,0.4L6.2,6.7C6.1,6.8,6,6.9,6,6.9v0.3H5V6.9c0-0.5,0.4-1,0.9-1.2L7,5.5V5.1z     M10.1,5.8C10.6,5.9,11,6.4,11,6.9v0.3h-1V6.9c0-0.1-0.1-0.2-0.2-0.2L8.4,6.3C8.2,6.3,8,6.1,8,5.9V5.1h1v0.4L10.1,5.8z M9,3.6    c0-0.6-0.4-1-1-1S7,3,7,3.6s0.4,1,1,1S9,4.2,9,3.6z M10,3.6c0,1.1-0.9,2-2,2s-2-0.9-2-2s0.9-2,2-2S10,2.5,10,3.6z M12.9,12.3    c1.7,0,3.1,1.5,3.1,3.2c0,0.3-0.2,0.5-0.5,0.5h-15C0.2,16,0,15.8,0,15.5c0-1.7,1.4-3.2,3.1-3.2c1,0,1.9,0.5,2.4,1.2    C6.1,12.8,7,12.3,8,12.3s1.9,0.5,2.4,1.2C11,12.8,11.9,12.3,12.9,12.3z M12.9,13.3c-0.9,0-1.7,0.6-2,1.4c0,0.1-0.1,0.2-0.2,0.2H15    C14.6,14.1,13.8,13.3,12.9,13.3z M10.1,15h0.6C10.6,15.1,10.3,15.1,10.1,15z M10,14.8c-0.3-0.9-1.1-1.4-2-1.4S6.3,14,6,14.8    C6,14.9,5.9,15,5.8,15h4.3C10.1,14.9,10,14.9,10,14.8z M5.1,14.8c-0.3-0.9-1.1-1.4-2-1.4c-1,0-1.8,0.8-2.1,1.7h4.2    C5.2,14.9,5.1,14.9,5.1,14.8z M4.2,11.2c0-0.6-0.5-1.2-1.1-1.2S2,10.5,2,11.2c0,0.6,0.5,1.2,1.1,1.2C3.7,12.3,4.2,11.8,4.2,11.2z     M5.2,11.2c0,1.2-1,2.2-2.1,2.2c-1.2,0-2.1-1-2.1-2.2S1.9,9,3.1,9S5.2,10,5.2,11.2z M9.1,11.2C9.1,10.5,8.6,10,8,10    s-1.1,0.5-1.1,1.2c0,0.6,0.5,1.2,1.1,1.2C8.6,12.3,9.1,11.8,9.1,11.2z M10.1,11.2c0,1.2-1,2.2-2.1,2.2c-1.2,0-2.1-1-2.1-2.2    S6.8,9,8,9S10.1,10,10.1,11.2z M13.9,11.2c0-0.6-0.5-1.2-1.1-1.2s-1.1,0.5-1.1,1.2c0,0.6,0.5,1.2,1.1,1.2    C13.4,12.3,13.9,11.8,13.9,11.2z M14.9,11.2c0,1.2-1,2.2-2.1,2.2c-1.2,0-2.1-1-2.1-2.2s1-2.2,2.2-2.2S14.9,10,14.9,11.2z M13,6.5    V1.7C13,1.3,12.6,1,12.2,1H3.8C3.3,1,3,1.3,3,1.7v4.7c0,0.4,0.4,0.7,0.8,0.7h8.3C12.7,7.2,13,6.9,13,6.5z M13.9,6.5    c0,0.9-0.8,1.6-1.8,1.6H3.8C2.8,8,2,7.4,2,6.5V1.7c0-0.9,0.8-1.6,1.8-1.6h8.3c1,0,1.8,0.7,1.8,1.6C13.9,1.7,13.9,6.5,13.9,6.5z"/>
	</g>
	<g id="ico-white-book" transform="translate(0, 0)">
		<path class="st0" d="M9.2,11.1V7.6c0-0.3,0.2-0.5,0.5-0.5H14V1H2v10.2L9.2,11.1L9.2,11.1z M10.1,11.9C10,12,9.8,12,9.7,12H1.5    C1.2,12,1,11.8,1,11.6V0.5c0-0.2,0.2-0.4,0.5-0.4h12.9c0.3,0,0.5,0.2,0.5,0.4v7c0,0.1-0.1,0.2-0.1,0.3L10.1,11.9z M13.3,8h-3.1    v2.7L13.3,8z M13.9,13.1v-2.6c0-0.3,0.2-0.5,0.5-0.5s0.5,0.2,0.5,0.5v3.1c0,0.3-0.2,0.5-0.5,0.5H2.5c-0.3,0-0.5-0.2-0.5-0.5    s0.2-0.5,0.5-0.5H13.9z M3.5,16C3.2,16,3,15.8,3,15.5S3.2,15,3.5,15h10.9c0.3,0,0.5,0.2,0.5,0.5S14.7,16,14.4,16H3.5z"/>
	</g>
	<g id="ico-contact-mobile" transform="translate(0, 0)">
		<path class="st0" d="M14.2,0.1h-7c-1,0-1.8,0.8-1.8,1.8l0,0v2.6H1.9c-1,0-1.8,0.8-1.8,1.8V12c0,1,0.8,1.8,1.8,1.8h0.8v2    c0,0,0.2,0.2,0.4,0.2c0.1,0,0.2,0,0.3-0.1l2.3-2.3h3.2c1,0,1.8-0.8,1.8-1.8V9.5l2,2c0.2,0.2,0.4,0.2,0.6,0l0,0    c0.1-0.1,0.1-0.2,0.1-0.3v-2h0.7c1,0,1.8-0.8,1.8-1.8V1.9C16,0.9,15.2,0.1,14.2,0.1z M9.9,11.8c0,0.6-0.5,1-1,1H5.5    c-0.1,0-0.2,0-0.3,0.1l-1.7,1.6v-1.4c0-0.2-0.2-0.4-0.4-0.4H1.9c-0.6,0-1-0.5-1-1V6.3c0-0.6,0.5-1,1-1h3.4v2.3    c0,1,0.8,1.8,1.8,1.8l0,0h2.7L9.9,11.8L9.9,11.8z M15.2,7.6c0,0.6-0.5,1-1,1h-1.1c-0.2,0-0.4,0.2-0.4,0.4v1.4L11,8.7    c-0.1-0.1-0.2-0.1-0.3-0.1H7.2c-0.6,0-1-0.5-1-1V1.9c0-0.6,0.5-1,1-1h7.2c0.6,0,1,0.5,1,1L15.2,7.6z"/>
	</g>
	<g id="ico-locate" transform="translate(0, 0)">
		<path class="st0" d="M8,0.1c-3.3,0-6,2.7-6,6c0,3.9,5.4,9.5,5.6,9.7C7.7,15.9,7.9,16,8,16c0.1,0,0.3-0.1,0.4-0.1    c0.2-0.3,5.6-6,5.6-9.8C13.9,2.8,11.3,0.1,8,0.1z M8,14.7C6.8,13.4,3,9,3,6.1c0-2.8,2.2-5,5-5s5,2.2,5,5S9.2,13.4,8,14.7z"/>
		<path class="st0" d="M8,2.6c-1.9,0-3.5,1.5-3.5,3.5S6,9.5,8,9.5c1.9,0,3.5-1.5,3.5-3.5l0,0C11.5,4.2,9.9,2.6,8,2.6z M8,8.5    C6.6,8.5,5.5,7.4,5.5,6S6.6,3.6,8,3.6s2.5,1.1,2.5,2.5l0,0C10.5,7.5,9.4,8.5,8,8.5L8,8.5z"/>
	</g>
	<g id="ico-telephone-2" transform="translate(0, 0)">
		<path class="st0" d="M12.5,16L12.5,16c-3.1,0-6.6-3.2-8-4.5S-0.4,6.3,0,3.1c0.2-1.2,0.9-2.3,2-2.9c0.1-0.1,0.2-0.1,0.3-0.1    c0.9,0,2.7,2.2,3.5,3.2c1,1.5,0.9,1.9,0.8,2.1c-0.1,0.4-0.4,0.8-0.7,1C5.6,6.6,5.4,6.9,5.3,7.2c0,0.1,0.1,0.5,0.8,1.3    c1,1.3,2.4,2.3,2.9,2.3c0.3-0.1,0.6-0.3,0.8-0.6c0.3-0.4,0.6-0.6,1.1-0.8c0.1,0,0.2,0,0.2,0c1.1,0,4.1,2.5,4.8,3.8    c0.2,0.3,0.2,0.6,0.1,0.9C15.1,15.3,13.8,16,12.5,16z M2.4,0.9C1.5,1.3,0.9,2.2,0.8,3.2C0.5,5.2,2.2,8,5.1,11    c1.3,1.3,4.6,4.3,7.4,4.3l0,0c1.1,0,2.2-0.6,2.7-1.6c-0.1-0.8-3.5-3.6-4.3-3.6c-0.3,0.1-0.5,0.3-0.7,0.6s-0.6,0.6-1,0.7    c-0.1,0-0.2,0-0.3,0.1c-1,0-2.9-1.8-3.8-3.1C4.6,7.8,4.4,7.3,4.6,6.9c0.1-0.4,0.4-0.8,0.8-1C5.6,5.7,5.9,5.4,6,5.1    c-0.4-1-1-1.9-1.8-2.7C3.7,1.8,3.1,1.2,2.4,0.9z"/>
	</g>
	<g id="ico-telephone-3" transform="translate(0, 0)">
		<path class="st0" d="M15.5,12l-1.9-2c-0.6-0.6-1.5-0.6-2.1,0l-0.9,0.9c-0.1,0.1-0.3,0.1-0.4,0C8.2,9.3,6.5,7.6,5,5.7    c0,0,0-0.1,0.1-0.2l0,0L6,4.6C6.6,4,6.6,3.1,6,2.5l-2-2c-0.6-0.6-1.5-0.6-2.2,0C1.7,0.7,0,2.5,0,4.2c0,2.1,4,6.2,4.8,7l0.3,0.3    c1.1,1.1,4.8,4.6,6.8,4.6c1.5,0,3.1-1.4,3.6-1.8l0.1-0.1C16,13.5,16,12.6,15.5,12z M14.6,13.2L14.6,13.2c-0.8,0.8-1.8,1.4-2.8,1.6    C11,14.7,8.5,13,6,10.5l-0.3-0.3c-2.5-2.4-4.5-5-4.5-6c0.2-1.1,0.8-2,1.6-2.8c0-0.1,0.1-0.1,0.2-0.1c0.1,0,0.1,0,0.2,0.1l1.9,1.9    c0.1,0.1,0.1,0.3,0,0.4L4.2,4.6c-0.5,0.5-0.5,1.5,0,2.1c1.6,1.9,3.3,3.7,5.2,5.2c0.6,0.5,1.5,0.5,2.1-0.1l0.9-0.9    c0.1-0.1,0.2-0.1,0.4,0l1.9,1.9C14.7,12.9,14.7,13.1,14.6,13.2L14.6,13.2z"/>
		<path class="st0" d="M8.1,2.8L8.1,2.8c-0.3,0-0.6,0.3-0.6,0.6S7.8,4,8.1,4c1.1,0,2.1,0.4,2.8,1.2C11.6,5.9,12.1,7,12.1,8    c0,0.3,0.3,0.6,0.6,0.6l0,0c0.3,0,0.6-0.3,0.6-0.6l0,0C13.3,5.1,11,2.8,8.1,2.8z"/>
		<path class="st0" d="M8,1.8c3.3-0.2,6.1,2.3,6.3,5.6c0,0.2,0,0.4,0,0.6c0,0.3,0.2,0.6,0.6,0.6l0,0l0,0c0.3,0,0.6-0.2,0.7-0.6    c0.2-4-2.8-7.4-6.8-7.6c-0.2,0-0.5,0-0.7,0C7.8,0.4,7.5,0.7,7.5,1l0,0C7.4,1.5,7.7,1.8,8,1.8z"/>
	</g>
	<g id="ico-quote-left">
		<path class="st0" d="M4.9,1.8C2.2,1.8,0,4,0,6.7v7.6h6.9v-7H3.1V6.7c0-1.3,0.8-2.4,1.7-2.4h0.3V1.8H4.9z M13.8,1.8    C11.2,1.8,9,4,9,6.7v7.6h6.9v-7h-3.8V6.7c0-1.3,0.8-2.4,1.7-2.4H14V1.8H13.8z"/>
	</g>
	<g id="ico-quote-right">
		<path class="st0" d="M11.1,14.2c2.7,0,4.9-2.2,4.9-4.9V1.8H9v6.9h3.8v0.7c0,1.4-0.8,2.4-1.7,2.4h-0.3v2.4L11.1,14.2L11.1,14.2z     M2.1,14.2C4.8,14.2,7,12,7,9.3V1.8H0v6.9h3.8v0.7c0,1.4-0.8,2.4-1.7,2.4H1.7v2.4L2.1,14.2C2.1,14.1,2.1,14.2,2.1,14.2z"/>
	</g>
	<g id="ico-coworkers">
		<path class="st0" d="M12.7,7.7c1.4-1.1,1.6-3.2,0.5-4.6S10,1.5,8.6,2.6C8.4,2.8,8.2,3,8,3.3C7,1.8,5,1.4,3.5,2.4s-1.9,3-0.9,4.5    C2.7,7.2,3,7.5,3.2,7.7C1.3,8.5,0,10.4,0,12.5h1.1c0-2.2,1.7-4,3.9-4.1c0.3,0.4,0.6,0.7,1,1c-1.9,0.8-3.2,2.7-3.2,4.8h1.1    c0-2.3,1.9-4.1,4.2-4.1c2.2,0,4,1.8,4.1,4.1h1.1c0-2.1-1.3-4-3.2-4.8c0.4-0.3,0.7-0.7,0.9-1.1c2.2,0.1,3.9,1.9,3.9,4.1H16    C15.9,10.4,14.7,8.5,12.7,7.7z M10.1,7.2L10.1,7.2c0,0.1-0.1,0.3-0.1,0.4l0,0v0.1l0,0v0.1l0,0v0.1l0,0V8l0,0c0,0,0,0.1-0.1,0.1    l0,0c0,0,0,0.1-0.1,0.1l0,0c0,0,0,0.1-0.1,0.1l0,0c0,0,0,0.1-0.1,0.1l0,0c0,0,0,0-0.1,0.1l0,0c0,0-0.1,0-0.1,0.1l0,0    c0,0-0.1,0-0.1,0.1l0,0c0,0-0.1,0-0.1,0.1C9,8.8,8.8,8.9,8.5,9l0,0H8.4l0,0H8.3l0,0H8.2l0,0C8.1,9,8,9,8,9H7.9l0,0H7.8l0,0H7.7    l0,0H7.6l0,0C7.3,8.9,7.2,8.9,7,8.8l0,0c-0.1,0-0.2-0.1-0.3-0.2l0,0c0,0-0.1,0-0.1-0.1l0,0c0,0-0.1,0-0.1-0.1l0,0    c0,0-0.1,0-0.1-0.1l0,0v0.1l0,0c0,0,0,0-0.1-0.1l0,0c0,0,0-0.1-0.1-0.1l0,0c0,0,0-0.1-0.1-0.1l0,0c0,0,0-0.1-0.1-0.1l0,0V7.9l0,0    V7.8l0,0V7.7l0,0V7.6l0,0C5.9,7.5,5.9,7.3,5.9,7.2l0,0C5.7,6,6.5,4.9,7.7,4.7l0,0l0,0h0.1l0,0h0.1H8l0,0h0.1l0,0    c0.1,0,0.2,0,0.3,0.1C9.6,5.1,10.3,6.1,10.1,7.2L10.1,7.2z M3.1,5.1c0-1.2,1-2.2,2.2-2.2C6,2.9,6.6,3.2,7,3.7    C5.6,4.2,4.7,5.4,4.7,6.9c0,0.1,0,0.2,0,0.3C3.8,7,3.1,6.1,3.1,5.1L3.1,5.1z M11.2,7.2c0.2-1.5-0.8-3-2.2-3.4    c0.7-0.9,2.1-1.1,3.1-0.4c0.9,0.7,1.1,2.1,0.4,3.1C12.1,6.8,11.7,7.1,11.2,7.2z"/>
	</g>
	<g id="ico-account">
		<path class="st0" d="M10.5,8.5C12.6,7,13.1,4.1,11.7,2S7.3-0.5,5.2,0.9S2.6,5.3,4.1,7.4c0.3,0.5,0.7,0.8,1.2,1.2    c-2.8,1.1-4.6,3.8-4.6,6.8C0.6,15.7,0.9,16,1.2,16s0.7-0.3,0.7-0.7c0-3.3,2.7-6,6-6s6,2.7,6,6c0,0.4,0.3,0.7,0.7,0.7    s0.7-0.3,0.7-0.7C15.2,12.3,13.3,9.6,10.5,8.5z M4.5,4.7c0-1.8,1.5-3.3,3.3-3.3s3.3,1.5,3.3,3.3S9.7,8,7.9,8S4.5,6.5,4.5,4.7z"/>
	</g>
	<g id="ico-shop">
		<path class="st0" d="M13.8,11.4c-0.9,0-1.7,0.6-2,1.4H7.1c-0.4-1.1-1.6-1.7-2.7-1.3s-1.7,1.6-1.3,2.7s1.6,1.7,2.7,1.3    c0.6-0.2,1.1-0.7,1.3-1.3h4.7c0.4,1.1,1.6,1.7,2.7,1.3s1.7-1.6,1.3-2.7C15.5,12,14.7,11.4,13.8,11.4L13.8,11.4z M5.1,14.3    c-0.4,0-0.8-0.3-0.8-0.8c0-0.4,0.3-0.8,0.8-0.8c0.4,0,0.8,0.3,0.8,0.8l0,0C5.9,14,5.5,14.3,5.1,14.3z M13.8,14.3    c-0.4,0-0.8-0.4-0.8-0.8c0-0.4,0.4-0.8,0.8-0.8c0.4,0,0.8,0.4,0.8,0.8C14.6,14,14.2,14.3,13.8,14.3L13.8,14.3z"/>
		<path class="st0" d="M4.3,10.6h11L16,3.5H5.1L2.7,0.4h-2C0.3,0.4,0,0.7,0,1.1s0.3,0.7,0.7,0.7h1.4l1.6,2L4.3,10.6z M14,9.3H5.5    L5.1,4.8h9.4L14,9.3z"/>
	</g>
	<g id="ico-buble">
		<path id="Bubble" class="st0" d="M12.4,0.3H3.7c-2,0-3.6,1.6-3.6,3.6v4.4c0,1.7,1.3,3.2,2.9,3.5v3.9l3.8-3.8h5.5    c2,0,3.6-1.6,3.6-3.6V3.9C15.9,1.9,14.3,0.3,12.4,0.3 M12.4,1.7c1.2,0,2.2,1,2.2,2.2v4.4c0,1.2-1,2.2-2.2,2.2H6.8H6.3l-0.4,0.4    l-1.6,1.6v-0.7v-1.1l-1.1-0.2c-1.1-0.2-1.8-1.1-1.8-2.2V3.9c0-1.2,1-2.2,2.2-2.2H12.4"/>
	</g>
	<g id="ico-target-blank">
		<path class="st0" d="M15.2,9.4c-0.4,0-0.7,0.3-0.7,0.7v4.6H1.3V1.4H6c0.4,0,0.7-0.3,0.7-0.7S6.4,0.1,6,0.1H0.7    C0.3,0.1,0,0.4,0,0.8v14.6C0,15.7,0.3,16,0.7,16h14.6c0.4,0,0.7-0.3,0.7-0.7V10C15.9,9.6,15.6,9.4,15.2,9.4z"/>
		<path class="st0" d="M15.8,0.5c-0.1-0.1-0.2-0.3-0.3-0.3c-0.1-0.1-0.2-0.1-0.3-0.1H9.9c-0.4,0-0.7,0.3-0.7,0.7s0.3,0.7,0.7,0.7    h3.7L6.8,8.2c-0.3,0.3-0.3,0.7,0,0.9l0,0c0.3,0.3,0.7,0.3,0.9,0l0,0l6.8-6.8V6c0,0.4,0.3,0.7,0.7,0.7s0.7-0.3,0.7-0.7V0.8    C15.9,0.7,15.9,0.6,15.8,0.5z"/>
	</g>
	<g id="ico-arrow-long">
		<path class="st0" d="M13.2,5.2L16,8l0,0l0,0l-2.8,2.8l-0.7-0.7l1.7-1.7L0,8.5v-1h14.1l-1.6-1.6L13.2,5.2z"/>
	</g>
	<g id="ico-dialog">
		<path id="Dialog" class="st0" d="M9,5.1v0.8H8c-0.8,0-1.5,0.7-1.5,1.5l0,0v2.9c0,0.8,0.7,1.5,1.5,1.5l0,0h4l1.3,1.3v-1.3h0.4   c0.8,0,1.5-0.7,1.5-1.5l0,0V7.4c0-0.8-0.7-1.5-1.5-1.5l0,0h-2.9V5.1h2.9c1.3,0,2.3,1,2.3,2.3l0,0v2.9c0,1.1-0.8,2.1-1.9,2.3l0,0   v2.5l-2.5-2.5H8c-1.3,0-2.3-1-2.3-2.3l0,0V7.4c0-1.3,1-2.3,2.3-2.3l0,0H9z M8,2.2c1.3,0,2.3,1,2.3,2.3l0,0v2.9c0,1.3-1,2.3-2.3,2.3   l0,0h-1V8.9h1c0.8,0,1.5-0.7,1.5-1.5l0,0V4.5C9.5,3.7,8.8,3,8,3l0,0H2.3C1.5,3,0.8,3.7,0.8,4.5l0,0v2.9c0,0.8,0.7,1.5,1.5,1.5l0,0   h0.4v1.3l1.3-1.3h1.1v0.8H4.4l-2.5,2.5V9.7C0.8,9.5,0,8.5,0,7.4l0,0V4.5c0-1.3,1-2.3,2.3-2.3l0,0H8z"/>
	</g>
    <g id="ico-favourite">
        <path class="st0" d="M25.5837 11.5677C25.5837 17.1692 20.1753 21.7077 13.5003 21.7077C12.0128 21.7077 10.5837 21.4806 9.26699 21.0692L2.25033 24.5706L5.04199 18.8106C2.80449 16.9677 1.41699 14.4049 1.41699 11.5677C1.41699 5.96631 6.82533 1.42773 13.5003 1.42773C20.1753 1.42773 25.5837 5.96631 25.5837 11.5677Z"/>
        <path d="M14.0253 17.6401C14.0253 17.6401 19.8044 13.3158 19.8044 10.1143C19.8044 6.42006 15.0753 5.25006 14.0253 9.74578C12.9753 5.25006 8.24609 6.42006 8.24609 10.1143C8.24609 13.3158 14.0253 17.6401 14.0253 17.6401Z" />
    </g>
    <g id="ico-print">
        <path class="st0" d="M6.8502 20.197H3.2502C2.2602 20.197 1.4502 19.3934 1.4502 18.4113V10.3756C1.4502 9.39342 2.2602 8.58984 3.2502 8.58984H25.7502C26.7402 8.58984 27.5502 9.39342 27.5502 10.3756V18.4113C27.5502 19.3934 26.7402 20.197 25.7502 20.197H22.1502"/>
        <path d="M6.85059 6.80441V1.44727H18.5506L22.1506 5.01869V6.80441"/>
        <path d="M22.1506 16.625H6.85059V25.5536H22.1506V16.625Z"/>
        <path d="M9.5498 19.3047H19.4498"/>
        <path d="M9.5498 21.0898H19.4498"/>
        <path d="M9.5498 22.875H19.4498"/>
        <path d="M18.5498 1.44727V5.01869H22.1498"/>
        <path d="M4.6 13.0536C5.34558 13.0536 5.95 12.454 5.95 11.7143C5.95 10.9746 5.34558 10.375 4.6 10.375C3.85442 10.375 3.25 10.9746 3.25 11.7143C3.25 12.454 3.85442 13.0536 4.6 13.0536Z"/>
    </g>
    <g id="ico-mail-2">
        <path d="M23.6186 1.38086L1.38184 10.5483L9.88043 13.9809L23.6186 1.38086Z"/>
        <path d="M23.619 1.38086L19.6655 19.2156L9.88086 13.9809L23.619 1.38086Z"/>
        <path d="M9.88086 13.9805V21.6168L13.3497 15.8361"/>
    </g>
    <g id="ico-add">
        <path d="M11.5 21.25C16.8848 21.25 21.25 16.8848 21.25 11.5C21.25 6.11522 16.8848 1.75 11.5 1.75C6.11522 1.75 1.75 6.11522 1.75 11.5C1.75 16.8848 6.11522 21.25 11.5 21.25Z"/>
        <path d="M11.5 7V16"/>
        <path d="M16 11.5H7"/>
    </g>
</g>
</svg>