<svg width="55.99999999999999" height="55.99999999999999" xmlns="http://www.w3.org/2000/svg" fill="none">
 <g>
  <title>Layer 1</title>
  <circle cx="28" cy="28" r="27.5" id="svglinkedin" stroke="#0046FE"/>
  <g>
   <path fill="#0046FE" d="m21.06038,19.36242c0,1.32886 -1.03355,2.36241 -2.51006,2.36241c-1.47651,0 -2.36242,-1.03355 -2.36242,-2.36241c0,-1.32886 1.03356,-2.36242 2.51007,-2.36242c1.47651,0 2.36241,1.03356 2.36241,2.36242zm0,4.42953l-4.87248,0l0,15.20805l4.87248,0l0,-15.20805zm7.97312,0l-5.0201,0l0,15.20805l4.8725,0l0,-8.1208c0,-4.42954 5.906,-4.87249 5.906,0l0,8.1208l5.0202,0l0,-9.745c0,-7.53017 -8.7114,-7.38252 -10.7786,-3.54359l0,-1.91946z"/>
  </g>
 </g>

</svg>