<svg width="55.99999999999999" height="55.99999999999999" xmlns="http://www.w3.org/2000/svg" fill="none">

 <g>
  <title>Layer 1</title>
  <circle stroke="#0046FE" id="svgtwitter" r="27.5" cy="28" cx="28"/>
  <path id="svg_2" fill="#0046FE" d="m35.72725,20.90496c-0.8429,-0.84298 -2.1074,-1.40496 -3.3719,-1.40496c-2.3884,0 -4.4958,1.96694 -4.4958,4.35537c0,0.28099 0,0.70248 0.1405,0.98347c-3.79342,-0.28099 -7.30581,-1.96694 -9.55375,-4.49586c-0.42148,0.56198 -0.56198,1.26446 -0.56198,2.10743c0,1.54546 0.84298,2.80992 2.10744,3.6529c-0.70248,0 -1.40496,-0.281 -2.10744,-0.56199c0,2.10744 1.54546,3.79339 3.65289,4.21488c-0.42148,0 -0.84297,0.1405 -1.26446,0.1405c-0.28099,0 -0.56198,0 -0.84297,-0.1405c0.56198,1.6859 2.24793,2.9504 4.35537,2.9504c-1.54546,1.124 -3.5124,1.8265 -5.76033,1.8265c-0.42149,0 -0.70248,0 -1.12397,0c2.10744,1.2644 4.49587,1.9669 7.02479,1.9669c8.42971,0 12.92561,-6.6033 12.92561,-12.22314c0,-0.1405 0,-0.42149 0,-0.56198c0.843,-0.56199 1.686,-1.40496 2.2479,-2.24794c-0.8429,0.28099 -1.6859,0.56199 -2.6694,0.70248c0.9835,-0.56198 1.686,-1.40496 1.967,-2.38843c-0.7025,0.56199 -1.686,0.84298 -2.6695,1.12397z"/>
 </g>
</svg>