<svg width="55.99999999999999" height="55.99999999999999" xmlns="http://www.w3.org/2000/svg" fill="none">
 <g>
  <title>Layer 1</title>
  <circle cx="28" cy="28" r="27.5" id="svgyoutube" stroke="#0046FE"/>
  <g>
   <path fill="#0046FE" d="m20.94697,16.50284l1.43939,0l1.00758,3.59848l0.7197,-3.59848l1.43939,0l-1.58333,5.32576l0,3.59848l-1.4394,0l0,-3.59848l-1.58333,-5.32576zm6.33333,2.30303c-1.00757,0 -1.72727,0.7197 -1.72727,1.72727l0,3.16667c0,1.15151 0.57576,1.72727 1.72727,1.72727c1.00758,0 1.7273,-0.71969 1.7273,-1.72727l0,-3.16667c0,-1.00757 -0.71972,-1.72727 -1.7273,-1.72727zm0.43182,4.89394c0,0.28788 -0.14394,0.57576 -0.57576,0.57576c-0.28788,0 -0.43181,-0.28788 -0.43181,-0.57576l0,-3.02273c0,-0.28788 0.14393,-0.57576 0.57575,-0.57576c0.43182,0 0.57576,0.28788 0.57576,0.57576l-0.14394,3.02273zm4.60608,-4.89394l0,5.03788c-0.144,0.14394 -0.4318,0.43182 -0.7197,0.43182c-0.2879,0 -0.2879,-0.14394 -0.2879,-0.43182l0,-5.03788l-1.2954,0l0,5.4697c0,0.71969 0.1439,1.15151 0.8636,1.15151c0.4318,0 0.8636,-0.14394 1.4394,-0.86363l0,0.71969l1.1515,0l0,-6.47727l-1.1515,0zm2.0151,13.24247c-0.4318,0 -0.5757,0.2878 -0.5757,0.7197l0,0.5757l1.0076,0l0,-0.5757c0.1439,-0.4319 0,-0.7197 -0.4319,-0.7197zm-4.4621,0c-0.1439,0 -0.1439,0.1439 -0.2879,0.1439l0,3.8864c0.144,0.1439 0.2879,0.1439 0.2879,0.2878c0.144,0.144 0.4318,0.144 0.5758,0c0,-0.1439 0.1439,-0.2878 0.1439,-0.4318l0,-3.1666c0,-0.144 0,-0.4319 -0.1439,-0.4319c-0.144,-0.4318 -0.4318,-0.4318 -0.5758,-0.2878zm4.6061,-4.894c-2.447,-0.1439 -10.65154,-0.1439 -12.95457,0c-2.73485,0.2879 -3.02273,1.8712 -3.02273,6.1894c0,4.3182 0.28788,5.9015 3.02273,6.0455c2.44697,0.1439 10.65147,0.1439 12.95457,0c2.7348,-0.144 3.0227,-1.8712 3.0227,-6.0455c-0.1439,-4.4621 -0.4318,-5.9015 -3.0227,-6.1894zm-11.80306,10.0758l-1.29545,0l0,-7.197l-1.29546,0l0,-1.1515l4.03031,0l0,1.2954l-1.4394,0l0,7.0531zm4.60606,0l-1.15151,0l0,-0.7197c-0.14394,0.2879 -0.43182,0.4318 -0.7197,0.5757c-0.57576,0.2879 -1.43939,0.2879 -1.43939,-0.8636l0,-5.1818l1.15151,0l0,4.75c0,0.2879 0,0.4318 0.28788,0.4318c0.28788,0 0.57576,-0.2879 0.7197,-0.4318l0,-4.75l1.15151,0l0,6.1894zm4.4621,-1.2955c0,0.7197 -0.2879,1.4394 -1.0076,1.4394c-0.4318,0 -0.7196,-0.1439 -1.1515,-0.5757l0,0.4318l-1.15148,0l0,-8.3485l1.15148,0l0,2.7348c0.2879,-0.2878 0.5758,-0.5757 1.0076,-0.5757c0.8636,0 1.1515,0.7197 1.1515,1.5833l0,3.3106zm4.1743,-1.5833l-2.1591,0l0,1.1515c0,0.4318 0,0.8636 0.5757,0.8636c0.4319,0 0.5758,-0.2878 0.5758,-0.8636l0,-0.4318l1.1515,0l0,0.4318c0,1.1515 -0.5758,1.8712 -1.7273,1.8712c-1.1515,0 -1.7272,-0.8636 -1.7272,-1.8712l0,-2.7348c0,-1.1516 0.7197,-1.8713 1.7272,-1.8713c1.1515,0 1.5834,0.7197 1.5834,1.8713l0,1.5833z"/>
  </g>
 </g>

</svg>